<?xml version="1.0" standalone="no"?>
<!DOCTYPE svg PUBLIC "-//W3C//DTD SVG 20010904//EN"
 "http://www.w3.org/TR/2001/REC-SVG-20010904/DTD/svg10.dtd">
<svg version="1.0" xmlns="http://www.w3.org/2000/svg"
 width="96.000000pt" height="100.000000pt" viewBox="0 0 96.000000 100.000000"
 preserveAspectRatio="xMidYMid meet">
<metadata>
Created by potrace 1.15, written by Peter Selinger 2001-2017
</metadata>
<g transform="translate(0.000000,100.000000) scale(0.100000,-0.100000)"
fill="#000000" stroke="none">
<path d="M349 695 c-103 -38 -191 -113 -229 -198 -35 -76 -26 -118 31 -147 48
-25 85 -25 151 0 29 11 53 20 53 20 0 0 -1 -21 -4 -46 -3 -43 -2 -45 20 -42
21 3 25 10 30 53 4 28 17 71 29 97 20 39 21 49 10 62 -17 22 -50 20 -50 -2 0
-31 -31 -63 -84 -88 -60 -28 -93 -30 -125 -8 -19 14 -22 22 -16 52 14 76 110
170 199 197 26 8 48 10 57 4 26 -17 49 -10 49 14 0 47 -47 60 -121 32z"/>
<path d="M610 687 c-68 -15 -80 -23 -80 -48 0 -18 4 -20 31 -14 27 6 30 5 25
-11 -28 -89 -36 -277 -13 -309 24 -31 37 -8 37 63 l0 67 77 35 c145 65 214
162 147 206 -33 22 -151 28 -224 11z m203 -47 c14 -13 -10 -47 -58 -80 -49
-34 -135 -73 -143 -65 -3 2 2 34 11 71 9 36 14 70 12 75 -12 18 159 18 178 -1z"/>
</g>
</svg>
